<?xml version="1.0" encoding="UTF-8"?>
<svg height="600" width="800" xmlns="http://www.w3.org/2000/svg" xmlns:xlink="http://www.w3.org/1999/xlink">
    <g id="Notes" font-family="'LucidaGrande', 'Lucida Grande', sans-serif" font-size="13">
        <rect fill="white" height="600.0" width="800.0" x="0.0" y="0.0" />
        <g font-size="13">
            <text x="18.0" y="176.0">Small</text>
            <text x="18.0" y="376.0">Medium</text>
            <text x="18.0" y="576.0">Large</text>
        </g>
        <g font-size="9">
            <text x="250.0" y="30.0">Ultralight</text>
            <text x="450.0" y="30.0">Regular</text>
            <text x="650.0" y="30.0">Black</text>
            <text id="template-version" fill="#505050" text-anchor="end" x="785.0" y="575.0">Template v.3.0</text>
            <a href="https://wangchujiang.com/#/app">
                <text fill="#505050" text-anchor="end" x="785.0" y="590.0">https://wangchujiang.com/#/app</text>
            </a>
        </g>
    </g>
    <g id="Guides" stroke="rgb(39, 170, 225)" stroke-width="0.5">
        <path id="Capline-S" d="M18,76 l800,0" />
        <path id="H-reference" d="M85,145.755 L87.685,145.755 L113.369,79.287 L114.052,79.287 L114.052,76 L112.148,76 L85,145.755 Z M95.693,121.536 L130.996,121.536 L130.263,119.313 L96.474,119.313 L95.693,121.536 Z M139.15,145.755 L141.787,145.755 L114.638,76 L113.466,76 L113.466,79.287 L139.15,145.755 Z" stroke="none" />
        <path id="Baseline-S" d="M18,146 l800,0" />
        <path id="left-margin-Ultralight-S" d="M221,56 l0,110" />
        <path id="right-margin-Ultralight-S" d="M309,56 l0,110" />
        <path id="left-margin-Regular-S" d="M421,56 l0,110" />
        <path id="right-margin-Regular-S" d="M509,56 l0,110" />
        <path id="left-margin-Black-S" d="M621,56 l0,110" />
        <path id="right-margin-Black-S" d="M709,56 l0,110" />
        <path id="Capline-M" d="M18,276 l800,0" />
        <path id="Baseline-M" d="M18,346 l800,0" />
        <path id="Capline-L" d="M18,476 l800,0" />
        <path id="Baseline-L" d="M18,546 l800,0" />
    </g>
    <g id="Symbols">
        <g id="Ultralight-S">
            <path d="M246.921,101.584 C248.863,103.194 250.883,104.804 253.097,106.507 C254.42,107.524 255.746,108.496 257.15,109.525 C257.664,109.902 258.184,110.284 258.711,110.671 C258.419,110.88 258.133,111.084 257.85,111.284 C257.001,111.887 256.2,112.456 255.412,113.06 C252.669,115.165 249.925,117.312 247.272,119.389 C246.923,119.647 246.614,119.954 246.355,120.3 C246.051,120.729 245.902,121.248 245.932,121.772 C245.963,122.295 246.172,122.793 246.525,123.184 C246.864,123.55 247.315,123.795 247.809,123.881 C248.303,123.967 248.811,123.89 249.256,123.661 C249.676,123.432 250.069,123.156 250.426,122.84 C251.42,122.023 252.413,121.204 253.404,120.383 C254.919,119.131 256.486,117.836 258.035,116.574 C258.518,116.181 259.022,115.827 259.607,115.418 C259.741,115.324 259.878,115.228 260.018,115.129 C260.019,115.388 260.021,115.589 260.013,115.788 C259.972,116.932 259.922,118.075 259.871,119.219 C259.764,121.655 259.652,124.174 259.641,126.656 C259.621,130.935 259.696,135.285 259.768,139.492 C259.785,140.493 259.802,141.494 259.818,142.495 C259.825,143.132 259.935,143.762 260.144,144.363 C260.267,144.725 260.473,145.052 260.748,145.319 C261.022,145.586 261.356,145.785 261.723,145.9 C261.941,145.966 262.169,146 262.398,146 C262.92,145.997 263.427,145.827 263.845,145.516 C264.958,144.701 265.999,143.87 266.938,143.042 C267.48,142.566 268.022,142.091 268.565,141.616 C270.655,139.789 272.816,137.899 274.85,135.943 C277.89,133.021 281.071,129.82 284.574,126.158 C285.251,125.45 285.564,124.678 285.479,123.924 C285.389,123.147 284.891,122.437 284.034,121.87 C283.104,121.256 282.173,120.643 281.239,120.032 C279.288,118.751 277.269,117.426 275.305,116.093 C273.523,114.885 271.778,113.654 269.929,112.351 C269.205,111.84 268.468,111.321 267.717,110.793 C268.324,110.304 268.916,109.83 269.493,109.369 C270.947,108.207 272.32,107.109 273.667,105.978 L274.658,105.146 C277.647,102.635 280.738,100.038 283.694,97.389 C284.566,96.608 284.97,95.86 284.927,95.1 C284.882,94.297 284.333,93.531 283.249,92.756 C277.53,88.671 270.915,83.649 265.221,77.374 L265.161,77.309 C264.971,77.082 264.755,76.877 264.518,76.698 C263.579,76.036 262.598,75.84 261.68,76.131 C260.549,76.49 260.504,77.557 260.472,78.336 L260.468,78.424 C260.4,80.003 260.367,81.681 260.363,83.865 C260.356,87.521 260.353,91.176 260.353,94.832 C260.352,97.916 260.35,101.001 260.346,104.085 C260.346,104.402 260.316,104.73 260.277,105.143 C260.27,105.223 260.262,105.306 260.254,105.393 L257.776,103.641 C254.841,101.568 252.039,99.588 249.233,97.613 C249.131,97.54 249.027,97.466 248.924,97.392 C248.45,97.027 247.941,96.71 247.403,96.447 C246.995,96.254 246.534,96.201 246.093,96.298 C245.652,96.395 245.256,96.635 244.969,96.981 C244.682,97.327 244.52,97.758 244.508,98.205 C244.497,98.652 244.637,99.091 244.907,99.45 C245.497,100.233 246.172,100.949 246.921,101.584 Z M264.679,138.166 C264.66,133.159 264.768,128.209 264.874,123.415 C264.938,120.505 265.004,117.501 265.039,114.529 L279.297,124.577 C275.566,128.56 271.553,132.101 267.307,135.844 C266.437,136.611 265.561,137.386 264.679,138.166 Z M264.517,82.609 C269.58,87.626 274.239,91.626 279.103,95.136 C278.364,95.757 277.63,96.378 276.901,96.998 C273.052,100.26 269.41,103.347 265.291,106.087 L264.517,82.609 Z" />
        </g>
        <g id="Regular-S">
            <path d="M446.921,101.584 C448.863,103.194 450.883,104.804 453.097,106.507 C454.42,107.524 455.746,108.496 457.15,109.525 C457.664,109.902 458.184,110.284 458.711,110.671 C458.419,110.88 458.133,111.084 457.85,111.284 C457.001,111.887 456.2,112.456 455.412,113.06 C452.669,115.165 449.925,117.312 447.272,119.389 C446.923,119.647 446.614,119.954 446.355,120.3 C446.051,120.729 445.902,121.248 445.932,121.772 C445.963,122.295 446.172,122.793 446.525,123.184 C446.864,123.55 447.315,123.795 447.809,123.881 C448.303,123.967 448.811,123.89 449.256,123.661 C449.676,123.432 450.069,123.156 450.426,122.84 C451.42,122.023 452.413,121.204 453.404,120.383 C454.919,119.131 456.486,117.836 458.035,116.574 C458.518,116.181 459.022,115.827 459.607,115.418 C459.741,115.324 459.878,115.228 460.018,115.129 C460.019,115.388 460.021,115.589 460.013,115.788 C459.972,116.932 459.922,118.075 459.871,119.219 C459.764,121.655 459.652,124.174 459.641,126.656 C459.621,130.935 459.696,135.285 459.768,139.492 C459.785,140.493 459.802,141.494 459.818,142.495 C459.825,143.132 459.935,143.762 460.144,144.363 C460.267,144.725 460.473,145.052 460.748,145.319 C461.022,145.586 461.356,145.785 461.723,145.9 C461.941,145.966 462.169,146 462.398,146 C462.92,145.997 463.427,145.827 463.845,145.516 C464.958,144.701 465.999,143.87 466.938,143.042 C467.48,142.566 468.022,142.091 468.565,141.616 C470.655,139.789 472.816,137.899 474.85,135.943 C477.89,133.021 481.071,129.82 484.574,126.158 C485.251,125.45 485.564,124.678 485.479,123.924 C485.389,123.147 484.891,122.437 484.034,121.87 C483.104,121.256 482.173,120.643 481.239,120.032 C479.288,118.751 477.269,117.426 475.305,116.093 C473.523,114.885 471.778,113.654 469.929,112.351 C469.205,111.84 468.468,111.321 467.717,110.793 C468.324,110.304 468.916,109.83 469.493,109.369 C470.947,108.207 472.32,107.109 473.667,105.978 L474.658,105.146 C477.647,102.635 480.738,100.038 483.694,97.389 C484.566,96.608 484.97,95.86 484.927,95.1 C484.882,94.297 484.333,93.531 483.249,92.756 C477.53,88.671 470.915,83.649 465.221,77.374 L465.161,77.309 C464.971,77.082 464.755,76.877 464.518,76.698 C463.579,76.036 462.598,75.84 461.68,76.131 C460.549,76.49 460.504,77.557 460.472,78.336 L460.468,78.424 C460.4,80.003 460.367,81.681 460.363,83.865 C460.356,87.521 460.353,91.176 460.353,94.832 C460.352,97.916 460.35,101.001 460.346,104.085 C460.346,104.402 460.316,104.73 460.277,105.143 C460.27,105.223 460.262,105.306 460.254,105.393 L457.776,103.641 C454.841,101.568 452.039,99.588 449.233,97.613 C449.13,97.54 449.027,97.466 448.924,97.392 C448.451,97.027 447.941,96.71 447.403,96.447 C446.995,96.254 446.534,96.201 446.093,96.298 C445.652,96.395 445.256,96.635 444.969,96.981 C444.682,97.327 444.52,97.758 444.508,98.205 C444.497,98.652 444.637,99.091 444.907,99.45 C445.497,100.233 446.172,100.949 446.921,101.584 Z M464.679,138.166 C464.66,133.159 464.768,128.209 464.874,123.415 C464.938,120.505 465.004,117.501 465.039,114.529 L479.297,124.577 C475.566,128.56 471.553,132.101 467.307,135.844 C466.437,136.611 465.561,137.386 464.679,138.166 Z M464.517,82.609 C469.58,87.626 474.239,91.626 479.103,95.136 C478.364,95.757 477.63,96.378 476.901,96.998 C473.052,100.26 469.41,103.347 465.291,106.087 L464.517,82.609 Z" />
        </g>
        <g id="Black-S">
            <path d="M646.921,101.584 C648.863,103.194 650.883,104.804 653.097,106.507 C654.42,107.524 655.746,108.496 657.15,109.525 C657.664,109.902 658.184,110.284 658.711,110.671 C658.419,110.88 658.133,111.084 657.85,111.284 C657.001,111.887 656.2,112.456 655.412,113.06 C652.669,115.165 649.925,117.312 647.272,119.389 C646.923,119.647 646.614,119.954 646.355,120.3 C646.051,120.729 645.902,121.248 645.932,121.772 C645.963,122.295 646.172,122.793 646.525,123.184 C646.864,123.55 647.315,123.795 647.809,123.881 C648.303,123.967 648.811,123.89 649.256,123.661 C649.676,123.432 650.069,123.156 650.426,122.84 C651.42,122.023 652.413,121.204 653.404,120.383 C654.919,119.131 656.485,117.836 658.035,116.574 C658.518,116.181 659.022,115.827 659.607,115.418 C659.741,115.324 659.878,115.228 660.018,115.129 C660.019,115.388 660.021,115.589 660.013,115.788 C659.972,116.932 659.922,118.075 659.871,119.219 C659.764,121.655 659.652,124.174 659.641,126.656 C659.621,130.935 659.696,135.285 659.768,139.492 C659.785,140.493 659.802,141.494 659.818,142.495 C659.825,143.132 659.935,143.762 660.144,144.363 C660.267,144.725 660.473,145.052 660.747,145.319 C661.022,145.586 661.356,145.785 661.723,145.9 C661.941,145.966 662.169,146 662.398,146 C662.92,145.997 663.427,145.827 663.845,145.516 C664.958,144.701 665.999,143.87 666.938,143.042 C667.479,142.566 668.022,142.091 668.565,141.616 C670.655,139.789 672.816,137.899 674.85,135.943 C677.89,133.021 681.071,129.82 684.574,126.158 C685.251,125.45 685.564,124.678 685.478,123.924 C685.389,123.147 684.891,122.437 684.034,121.87 C683.104,121.256 682.173,120.643 681.239,120.032 C679.288,118.751 677.269,117.426 675.305,116.093 C673.523,114.885 671.778,113.654 669.929,112.351 C669.205,111.84 668.468,111.321 667.717,110.793 C668.324,110.304 668.916,109.83 669.493,109.369 C670.947,108.207 672.32,107.109 673.667,105.978 L674.658,105.146 C677.647,102.635 680.738,100.038 683.694,97.389 C684.566,96.608 684.97,95.86 684.927,95.1 C684.882,94.297 684.333,93.531 683.249,92.756 C677.529,88.671 670.915,83.649 665.221,77.374 L665.161,77.309 C664.971,77.082 664.755,76.877 664.518,76.698 C663.579,76.036 662.598,75.84 661.68,76.131 C660.549,76.49 660.504,77.557 660.471,78.336 L660.468,78.424 C660.4,80.003 660.367,81.681 660.363,83.865 C660.356,87.521 660.353,91.176 660.353,94.832 C660.352,97.916 660.35,101.001 660.346,104.085 C660.346,104.402 660.316,104.73 660.277,105.143 C660.27,105.223 660.262,105.306 660.254,105.393 L657.776,103.641 C654.841,101.568 652.039,99.588 649.233,97.613 C649.13,97.54 649.027,97.466 648.924,97.392 C648.45,97.027 647.941,96.71 647.403,96.447 C646.995,96.254 646.534,96.201 646.093,96.298 C645.652,96.395 645.256,96.635 644.969,96.981 C644.682,97.327 644.52,97.758 644.508,98.205 C644.497,98.652 644.637,99.091 644.907,99.45 C645.497,100.233 646.172,100.949 646.921,101.584 Z M664.679,138.166 C664.66,133.159 664.768,128.209 664.874,123.415 C664.938,120.505 665.004,117.501 665.039,114.529 L679.297,124.577 C675.566,128.56 671.553,132.101 667.307,135.844 C666.437,136.611 665.561,137.386 664.679,138.166 Z M664.517,82.609 C669.58,87.626 674.239,91.626 679.103,95.136 C678.364,95.757 677.63,96.378 676.901,96.998 C673.052,100.26 669.41,103.347 665.291,106.087 L664.517,82.609 Z" />
        </g>
    </g>
</svg>